<svg style="order:0;flex-shrink:0" xmlns="http://www.w3.org/2000/svg" width="16" height="16" fill="rgb(255, 255, 255)" viewBox="0 0 256 256" bis_size="{&quot;x&quot;:1063,&quot;y&quot;:52,&quot;w&quot;:16,&quot;h&quot;:16,&quot;abs_x&quot;:1375,&quot;abs_y&quot;:113}"><path d="M228 152v56a20 20 0 0 1-20 20H48a20 20 0 0 1-20-20v-56a12 12 0 0 1 24 0v52h152v-52a12 12 0 0 1 24 0Zm-108.49 8.49a12 12 0 0 0 17 0l40-40a12 12 0 0 0-17-17L140 123V40a12 12 0 0 0-24 0v83l-19.51-19.49a12 12 0 0 0-17 17Z" bis_size="{&quot;x&quot;:1065,&quot;y&quot;:53,&quot;w&quot;:12,&quot;h&quot;:12,&quot;abs_x&quot;:1377,&quot;abs_y&quot;:114}"></path></svg>